<svg version="1.1" id="Layer_1" xmlns="http://www.w3.org/2000/svg" xmlns:xlink="http://www.w3.org/1999/xlink" x="0px" y="0px"
	 width="100%" viewBox="0 0 448 512" enable-background="new 0 0 448 512" xml:space="preserve">
<path fill="#000000" opacity="1.000000" stroke="none" 
	d="
M189.468658,513.000000 
	C182.583160,510.119232 175.558792,509.465393 168.869598,507.546265 
	C113.280113,491.597748 73.453056,456.744751 46.850349,406.076904 
	C29.621670,373.262909 20.245495,338.026184 15.619188,301.420044 
	C12.983379,280.563934 11.660884,259.632874 13.788691,238.659637 
	C15.761221,219.216934 20.978123,200.444885 26.873945,181.897491 
	C39.197910,143.128098 57.877411,107.874352 86.267883,78.361931 
	C118.432381,44.926350 157.632401,24.444708 203.146942,15.567156 
	C247.455643,6.924803 289.613312,13.024994 329.562805,33.603786 
	C350.158051,44.212818 366.379333,59.762302 374.441742,81.957916 
	C384.984039,110.980568 382.866119,138.667755 362.226959,163.108109 
	C350.947174,176.465317 336.051178,184.592285 319.655640,189.980789 
	C302.310059,195.681534 284.538574,198.883545 266.170227,198.308853 
	C249.116745,197.775299 237.485580,186.586273 237.716537,170.663315 
	C237.894897,158.366531 246.783524,148.381866 259.720215,145.946442 
	C270.846527,143.851837 283.672821,150.877747 287.205353,161.974548 
	C288.937134,167.414490 291.375702,167.932632 296.253448,166.792709 
	C312.056946,163.099426 326.850189,157.536835 338.676971,145.880280 
	C349.461121,135.251328 352.819244,122.143738 351.303345,107.472740 
	C348.557526,80.898918 331.240997,65.692329 308.926849,55.539238 
	C262.050079,34.209942 214.785416,36.266323 168.092041,56.258499 
	C118.270493,77.590027 85.540588,115.711174 64.139969,164.545410 
	C54.677162,186.138672 47.807770,208.556519 43.748535,231.725494 
	C40.863560,248.192123 41.588882,264.977692 42.579777,281.574005 
	C43.929218,304.175629 47.739990,326.463776 54.341141,348.195190 
	C65.315651,384.323914 82.221184,417.003815 110.376694,442.915619 
	C137.240997,467.639099 169.242416,481.229218 205.285172,485.787354 
	C234.775070,489.516724 264.138702,489.160400 292.995636,481.587646 
	C333.077698,471.069153 366.433044,450.550751 388.722015,414.501495 
	C398.422668,398.812012 402.971375,381.254608 406.623444,363.428406 
	C411.723785,338.532837 413.885651,313.339294 412.573486,287.985779 
	C411.324341,263.849487 407.920135,239.999023 399.404053,217.154236 
	C396.479919,209.310043 398.086426,205.471008 405.627625,201.956329 
	C419.875275,195.316010 422.961365,196.430634 427.767120,211.270264 
	C434.445343,231.891968 438.640167,253.023636 440.434052,274.679718 
	C441.660583,289.486664 442.143127,304.297882 441.166718,319.068329 
	C438.907898,353.237427 434.224762,387.146637 419.301605,418.350098 
	C400.777008,457.083954 369.547363,482.678223 330.508789,499.353607 
	C316.366333,505.394623 301.569977,509.210175 286.323669,512.820557 
	C253.979111,513.000000 221.958206,513.000000 189.468658,513.000000 
z"/>
</svg>